<svg xmlns="http://www.w3.org/2000/svg" viewBox="0 0 45 45" shape-rendering="geometricPrecision" text-rendering="geometricPrecision" image-rendering="optimizeQuality" fill-rule="evenodd" clip-rule="evenodd">
<path d="M22.499 1.824c11.417 0 20.676 9.26 20.676 20.676 0 11.418-9.26 20.677-20.676 20.677-11.417 0-20.676-9.26-20.676-20.677S11.082 1.824 22.499 1.824zm0 1.23c10.739 0 19.447 8.708 19.447 19.446 0 10.739-8.708 19.447-19.447 19.447-10.74 0-19.447-8.708-19.447-19.447 0-10.738 8.708-19.447 19.447-19.447zm0 1.603c5.457 0 10.34 2.45 13.614 6.312-.688-.45-1.391-.675-2.108-.675-3.24 0-5.91 7.986-5.91 10.598 0 3.13 1.88 4.702 4.82 4.702 3.024 0 4.383-1.147 5.133-1.48.428 2.19-2.962 6.622-5.047 8.35-3.911 3.24-7.226 4.438-9.918 4.438-2.36 0-5.075-.224-8.948-1.96l-.2.373c3.88 2.573 7.259 4.227 10.254 4.949a17.798 17.798 0 0 1-14.943-5.818c4.878.108 9.177-.135 12.032-1.682 2.746-1.488 4.29-4.35 4.218-9.392-.061-4.287-3.056-11.256-7.198-11.134-3.198.094-5.868 7.734-5.868 10.288 0 2.684 1.966 4.395 4.737 4.395 3.398 0 5.308-1.73 5.235-1.43-.508 2.102-2.525 3.237-5.681 3.835-2.743.519-6.474.686-10.55.38A17.771 17.771 0 0 1 4.656 22.5c0-6.566 3.55-12.304 8.833-15.402l5.025 3.022 3.45-5.455c.179-.005.357-.008.536-.008zM21.453 21.17c-.556-2.186-2.774-3.758-4.565-3.758-1.312 0-2.53 1.148-2.53 2.402 0 1.345 1.698 1.909 3.287 1.96 1.202.039 2.798-.205 3.808-.604zm15.724-1.567c-.555-2.282-2.774-3.924-4.565-3.924-1.312 0-2.53 1.2-2.53 2.509 0 1.403 1.698 1.992 3.287 2.046 1.202.04 2.798-.214 3.808-.631z"/>
</svg>
